<svg xmlns="http://www.w3.org/2000/svg" aria-hidden="true" focusable="false" data-prefix="fab" data-icon="css3-alt" role="img" width="384" height="512"><rect id="backgroundrect" width="100%" height="100%" x="0" y="0" fill="none" stroke="none"/><g class="currentLayer" style=""><title>Layer 1</title><rect fill="#ffffff" stroke-dashoffset="" fill-rule="nonzero" id="svg_2" x="57.00882182286171" y="77.96239853763579" width="266.95061670682117" height="317.72600431679894" style="color: rgb(35, 139, 200);" class="selected" fill-opacity="1"/><path fill="#238bc8" d="M0.7936508059501648,1.0476192831993103 l34.9,395.8 L192.79365080595016,449.0476192831993 l157.1,-52.2 L384.79365080595016,1.0476192831993103 H0.7936508059501648 zm313.1,80 l-4.8,47.3 L193.79365080595016,177.6476192831993 l-0.30000000000000016,0.1 h111.5 l-12.8,146.6 l-98.2,28.7 l-98.8,-29.2 l-6.4,-73.9 h48.9 l3.2,38.3 l52.6,13.3 l54.7,-15.4 l3.7,-61.6 l-166.3,-0.5 v-0.1 l-0.2,0.1 l-3.6,-46.3 L193.89365080595016,131.0476192831993 l6.5,-2.7 H77.49365080595017 L71.69365080595017,81.04761928319931 h242.2 z" id="svg_1" class="" fill-opacity="1"/></g></svg>