<svg xmlns="http://www.w3.org/2000/svg" aria-hidden="true" focusable="false" data-prefix="fab" data-icon="git-alt" role="img" width="448" height="512"><rect id="backgroundrect" width="100%" height="100%" x="0" y="0" fill="none" stroke="none"/><g class="currentLayer" style=""><title>Layer 1</title><rect fill="#f8f9fa" stroke="#ffffff" stroke-width="2" stroke-linejoin="round" stroke-dashoffset="" fill-rule="nonzero" id="svg_4" x="74.56311194803295" y="106.23303621646583" width="286.1277366302165" height="247.35932055301382" style="color: rgb(0, 0, 0);" class="" stroke-opacity="1" fill-opacity="1" transform="rotate(45.072181701660156 217.62698364257798,229.9127044677735) "/><path fill="#f34f29" d="M439.55,237.63730161190034 L244,42.03730161190033 a28.87,28.87 0 0 0 -40.81,0 l-40.66,40.63 l51.52,51.52 c27.06,-9.14 52.68,16.77 43.39,43.68 l49.66,49.66 c34.23,-11.8 61.18,31 35.47,56.69 c-26.49,26.49 -70.21,-2.87 -56,-37.34 L240.22,200.58730161190033 v121.85 c25.3,12.54 22.26,41.85 9.08,55 a34.34,34.34 0 0 1 -48.55,0 c-17.57,-17.6 -11.07,-46.91 11.25,-56 v-123 c-20.8,-8.51 -24.6,-30.74 -18.64,-45 L142.57,102.58730161190033 L8.45,236.72730161190032 a28.86,28.86 0 0 0 0,40.81 l195.61,195.6 a28.86,28.86 0 0 0 40.8,0 l194.69,-194.69 a28.86,28.86 0 0 0 0,-40.81 z" id="svg_1" class="selected" fill-opacity="1"/></g></svg>