<svg xmlns:inkscape="http://www.inkscape.org/namespaces/inkscape" xmlns:sodipodi="http://sodipodi.sourceforge.net/DTD/sodipodi-0.dtd" xmlns="http://www.w3.org/2000/svg" xmlns:svg="http://www.w3.org/2000/svg" width="210" height="297" version="1.1" inkscape:version="1.1 (c68e22c387, 2021-05-23)" sodipodi:docname="manos2.svg"><rect id="backgroundrect" width="100%" height="100%" x="0" y="0" fill="none" stroke="none"/>
  <sodipodi:namedview id="namedview7" pagecolor="#ffffff" bordercolor="#666666" borderopacity="1.0" inkscape:pageshadow="2" inkscape:pageopacity="0.0" inkscape:pagecheckerboard="0" inkscape:document-units="mm" showgrid="false" inkscape:zoom="0.60756173" inkscape:cx="397.49047" inkscape:cy="430.40894" inkscape:window-width="1600" inkscape:window-height="871" inkscape:window-x="-9" inkscape:window-y="-9" inkscape:window-maximized="1" inkscape:current-layer="layer1"/>
  <defs id="defs2"/>
  
<g class="currentLayer" style=""><title>Layer 1</title><g inkscape:label="Capa 1" inkscape:groupmode="layer" id="layer1" class="selected" fill-opacity="0.9" fill="#161616">
    <path id="path832" style="stroke-width:0.472062" d="m 158.79351,21.371445 c 7.90358,0.01626 14.2787,7.166464 14.26664,15.99984 l -0.14876,108.994665 c -0.009,5.43977 -1.66648,10.7265 -4.70867,14.96223 l -46.57544,66.92769 c -2.23706,3.23929 -3.7602,6.92967 -4.65857,10.82049 -0.80848,3.44188 -3.6244,5.78122 -6.83944,5.77457 l -58.808471,-0.12144 c -3.929451,-0.007 -7.13928,-3.60713 -7.133296,-7.99889 l 0.07616,-55.89511 c 0.01884,-13.82396 4.055691,-27.2409 11.483221,-38.30473 L 81.51942,104.25653 c 4.742817,-7.026996 13.719823,-8.45561 20.00865,-3.15254 6.28886,5.30304 7.57067,15.33593 2.82788,22.36291 L 87.3078,148.785 c -2.1477,3.18958 -1.841253,7.63114 0.655534,10.43108 l 5.707149,6.39951 c 2.98719,3.34986 7.854807,3.11078 10.538957,-0.52684 l 40.17177,-53.7156 0.1008,-74.060902 c 0.0127,-8.833374 6.40755,-15.957136 14.31114,-15.940813 z M -104.2344,130.80577 c -3.4e-4,0.14538 -0.002,0.29084 -0.002,0.43616 -0.008,-0.0245 -0.0151,-0.0448 -0.0238,-0.0727 -0.0116,-0.11409 -0.0221,-0.22849 -0.0337,-0.34269 0.0198,-0.007 0.0401,-0.0138 0.0598,-0.0208 z m 119.848169,102.96198 -6.77e-4,0.53811 c -0.142514,0.33881 -0.287162,0.6771 -0.456687,0.99327 -0.0066,0.0123 -0.01718,0.0161 -0.02299,0.0275 l 0.005,-1.16869 c 0.03206,-0.11958 0.06745,-0.23701 0.09868,-0.35709 0.122487,-0.0123 0.258167,-0.0221 0.377619,-0.0328 z m -0.116218,1.39757 c -0.09028,0.33827 -0.208547,0.64853 -0.366033,0.91461 5e-5,-0.23685 9.43e-4,-0.47363 0.0017,-0.71045 0.123491,-0.0648 0.245403,-0.13223 0.364193,-0.20416 z m 0.112899,1.07534 -6.27e-4,0.4309 c -0.0012,0.99659 -0.187712,1.94193 -0.490791,2.8229 0.0032,-0.84459 0.005,-1.68921 0.0084,-2.53383 0.188205,-0.27859 0.254662,-0.39267 0.482804,-0.71997 z m -52.543966,7.27973 c 0.0097,0.001 0.01991,0.005 0.02993,0.006 0.06351,0.34364 0.122105,0.66616 0.188247,1.0209 l -0.124763,1.9e-4 c -0.03077,-0.33957 -0.06216,-0.68107 -0.09342,-1.02703 z" fill="#161616"/>
  </g></g></svg>