<svg xmlns:inkscape="http://www.inkscape.org/namespaces/inkscape" xmlns:sodipodi="http://sodipodi.sourceforge.net/DTD/sodipodi-0.dtd" xmlns="http://www.w3.org/2000/svg" xmlns:svg="http://www.w3.org/2000/svg" width="210" height="297" version="1.1" inkscape:version="1.1 (c68e22c387, 2021-05-23)" sodipodi:docname="manos1.svg"><rect id="backgroundrect" width="100%" height="100%" x="0" y="0" fill="none" stroke="none"/>
  <sodipodi:namedview id="namedview7" pagecolor="#ffffff" bordercolor="#666666" borderopacity="1.0" inkscape:pageshadow="2" inkscape:pageopacity="0.0" inkscape:pagecheckerboard="0" inkscape:document-units="mm" showgrid="false" inkscape:zoom="0.60756173" inkscape:cx="397.49047" inkscape:cy="430.40894" inkscape:window-width="1600" inkscape:window-height="871" inkscape:window-x="-9" inkscape:window-y="-9" inkscape:window-maximized="1" inkscape:current-layer="layer1"/>
  <defs id="defs2"/>
  
<g class="currentLayer" style=""><title>Layer 1</title><g inkscape:label="Capa 1" inkscape:groupmode="layer" id="layer1" class="selected" fill-opacity="1" fill="#f8f9fa">
    <path id="path832" style="stroke-width:0.472062" d="m 54.553402,20.064993 c -7.90358,0.01626 -14.278697,7.166464 -14.266637,15.99984 l 0.14876,108.994667 c 0.009,5.43977 1.66648,10.7265 4.708667,14.96223 l 46.57544,66.92769 c 2.23706,3.23929 3.7602,6.92967 4.65857,10.82049 0.80848,3.44188 3.624398,5.78122 6.839438,5.77457 l 58.80847,-0.12144 c 3.92945,-0.007 7.13928,-3.60713 7.1333,-7.99889 l -0.0762,-55.89511 c -0.0188,-13.82396 -4.05569,-27.2409 -11.48322,-38.30473 l -25.77254,-38.27423 c -4.74281,-7.026998 -13.71982,-8.455612 -20.00865,-3.152542 -6.28886,5.303042 -7.57067,15.335932 -2.82788,22.362912 l 17.04815,25.3181 c 2.1477,3.18958 1.84126,7.63114 -0.65553,10.43108 l -5.70715,6.39951 c -2.98719,3.34986 -7.85481,3.11078 -10.53896,-0.52684 L 68.965702,110.0667 68.864902,36.005796 C 68.852202,27.172422 62.457352,20.04866 54.553762,20.064983 Z M 317.58132,129.49932 c 3.4e-4,0.14538 0.002,0.29084 0.002,0.43616 0.008,-0.0245 0.0151,-0.0448 0.0238,-0.0727 0.0116,-0.11409 0.0221,-0.22849 0.0337,-0.34269 -0.0198,-0.007 -0.0401,-0.0138 -0.0598,-0.0208 z m -119.84818,102.96198 6.8e-4,0.53811 c 0.14251,0.33881 0.28716,0.6771 0.45669,0.99327 0.007,0.0123 0.0172,0.0161 0.023,0.0275 l -0.005,-1.16869 c -0.0321,-0.11958 -0.0674,-0.23701 -0.0987,-0.35709 -0.12249,-0.0123 -0.25817,-0.0221 -0.37762,-0.0328 z m 0.11622,1.39757 c 0.0903,0.33827 0.20855,0.64853 0.36603,0.91461 -5e-5,-0.23685 -9.4e-4,-0.47363 -0.002,-0.71045 -0.12349,-0.0648 -0.2454,-0.13223 -0.36419,-0.20416 z m -0.1129,1.07534 6.3e-4,0.4309 c 0.001,0.99659 0.18771,1.94193 0.49079,2.8229 -0.003,-0.84459 -0.005,-1.68921 -0.008,-2.53383 -0.1882,-0.27859 -0.25466,-0.39267 -0.4828,-0.71997 z m 52.54397,7.27973 c -0.01,0.001 -0.0199,0.005 -0.0299,0.006 -0.0635,0.34364 -0.1221,0.66616 -0.18824,1.0209 l 0.12476,1.9e-4 c 0.0308,-0.33957 0.0622,-0.68107 0.0934,-1.02703 z" fill="#f8f9fa"/>
  </g></g></svg>