<svg xmlns="http://www.w3.org/2000/svg" aria-hidden="true" focusable="false" data-prefix="fab" data-icon="npm" role="img" width="576" height="512"><rect id="backgroundrect" width="100%" height="100%" x="0" y="0" fill="none" stroke="none"/><g class="currentLayer" style=""><title>Layer 1</title><rect fill="#f8f9fa" stroke-dashoffset="" fill-rule="nonzero" id="svg_2" x="14" y="174" width="545" height="163" style="color: rgb(74, 186, 232);" class="" fill-opacity="1"/><rect fill="#f8f9fa" stroke-dashoffset="" fill-rule="nonzero" id="svg_5" x="177" y="264" width="105" height="107" style="color: rgb(74, 186, 232);" class="selected" fill-opacity="1"/><path fill="#cc3534" d="M288 288h-32v-64h32v64zm288-128v192H288v32H160v-32H0V160h576zm-416 32H32v128h64v-96h32v96h32V192zm160 0H192v160h64v-32h64V192zm224 0H352v128h64v-96h32v96h32v-96h32v96h32V192z" id="svg_1" class="" fill-opacity="1"/></g></svg>